<svg width="7" height="11" viewBox="0 0 7 11" fill="none" xmlns="http://www.w3.org/2000/svg">
<path d="M1.12537 10.2502C1.07619 10.2508 1.02743 10.2411 0.98222 10.2218C0.937011 10.2024 0.896365 10.1738 0.862881 10.1377C0.827733 10.1029 0.79983 10.0614 0.780792 10.0157C0.761754 9.97002 0.751953 9.921 0.751953 9.8715C0.751953 9.82199 0.761754 9.77297 0.780792 9.72728C0.79983 9.68158 0.827733 9.64011 0.862881 9.60524L5.09288 5.37524L0.862881 1.13775C0.827733 1.10289 0.79983 1.06141 0.780792 1.01571C0.761754 0.970017 0.751953 0.921001 0.751953 0.871496C0.751953 0.821992 0.761754 0.772975 0.780792 0.727278C0.79983 0.681581 0.827733 0.640105 0.862881 0.605244C0.932979 0.536534 1.02722 0.498047 1.12537 0.498047C1.22353 0.498047 1.31778 0.536534 1.38788 0.605244L6.15788 5.37524L1.38788 10.1377C1.35385 10.1731 1.31308 10.2012 1.268 10.2205C1.22292 10.2399 1.17442 10.25 1.12537 10.2502Z" fill="#3C3C3B"/>
</svg>
